<?xml version="1.0" encoding="UTF-8"?>
<svg width="15px" height="14px" viewBox="0 0 15 14" version="1.1" xmlns="http://www.w3.org/2000/svg" xmlns:xlink="http://www.w3.org/1999/xlink">
    <!-- Generator: Sketch 49.3 (51167) - http://www.bohemiancoding.com/sketch -->
    <title>ic_addproduct</title>
    <desc>Created with Sketch.</desc>
    <defs></defs>
    <g id="Page-1" stroke="none" stroke-width="1" fill="none" fill-rule="evenodd">
        <g id="04_1_ProductManagement" transform="translate(-824.000000, -133.000000)">
            <g id="title" transform="translate(152.000000, 122.000000)">
                <g id="button" transform="translate(660.000000, 0.000000)">
                    <g id="user" transform="translate(12.000000, 10.000000)">
                        <g id="ic_addproduct">
                            <g id="Icon-24px">
                                <polygon id="Shape" points="0 0 16 0 16 16 0 16"></polygon>
                                <path d="M1.68666667,13.1 L2.58,13.4733333 L2.58,7.45333333 L0.96,11.36 C0.686666667,12.04 1.01333333,12.82 1.68666667,13.1 L1.68666667,13.1 Z M14.6866667,10.6333333 L11.38,2.65333333 C11.1733333,2.15333333 10.6866667,1.84666667 10.1733333,1.83333333 C10,1.83333333 9.82,1.86 9.64666667,1.93333333 L4.73333333,3.96666667 C4.23333333,4.17333333 3.92666667,4.65333333 3.91333333,5.16666667 C3.90666667,5.34666667 3.94,5.52666667 4.01333333,5.7 L7.32,13.68 C7.52666667,14.1866667 8.02,14.4933333 8.54,14.5 C8.71333333,14.5 8.88666667,14.4666667 9.05333333,14.4 L13.96,12.3666667 C14.64,12.0866667 14.9666667,11.3066667 14.6866667,10.6333333 L14.6866667,10.6333333 Z M5.25333333,5.83333333 C4.88666667,5.83333333 4.58666667,5.53333333 4.58666667,5.16666667 C4.58666667,4.8 4.88666667,4.5 5.25333333,4.5 C5.62,4.5 5.92,4.8 5.92,5.16666667 C5.92,5.53333333 5.62,5.83333333 5.25333333,5.83333333 L5.25333333,5.83333333 Z M3.92,13.1666667 C3.92,13.9 4.52,14.5 5.25333333,14.5 L6.22,14.5 L3.92,8.94 L3.92,13.1666667 L3.92,13.1666667 Z" id="Shape" fill="#FFFFFF"></path>
                            </g>
                        </g>
                    </g>
                </g>
            </g>
        </g>
    </g>
</svg>