<?xml version="1.0" encoding="UTF-8"?>
<svg width="29px" height="28px" viewBox="0 0 29 28" version="1.1" xmlns="http://www.w3.org/2000/svg" xmlns:xlink="http://www.w3.org/1999/xlink">
    <!-- Generator: Sketch 49.3 (51167) - http://www.bohemiancoding.com/sketch -->
    <title>ic_account_balance_wallet</title>
    <desc>Created with Sketch.</desc>
    <defs></defs>
    <g id="Page-1" stroke="none" stroke-width="1" fill="none" fill-rule="evenodd">
        <g id="02_Dashboard" transform="translate(-432.000000, -267.000000)">
            <g id="wiedget" transform="translate(22.000000, 181.000000)">
                <g id="Group" transform="translate(394.000000, 0.000000)">
                    <g id="ic_account_balance_wallet" transform="translate(12.000000, 82.000000)">
                        <g id="Icon-24px">
                            <polygon id="Shape" points="0 0 36 0 36 36 0 36"></polygon>
                            <path d="M31.5,27 L31.5,28.5 C31.5,30.15 30.15,31.5 28.5,31.5 L7.5,31.5 C5.835,31.5 4.5,30.15 4.5,28.5 L4.5,7.5 C4.5,5.85 5.835,4.5 7.5,4.5 L28.5,4.5 C30.15,4.5 31.5,5.85 31.5,7.5 L31.5,9 L18,9 C16.335,9 15,10.35 15,12 L15,24 C15,25.65 16.335,27 18,27 L31.5,27 L31.5,27 Z M18,24 L33,24 L33,12 L18,12 L18,24 L18,24 Z M24,20.25 C22.755,20.25 21.75,19.245 21.75,18 C21.75,16.755 22.755,15.75 24,15.75 C25.245,15.75 26.25,16.755 26.25,18 C26.25,19.245 25.245,20.25 24,20.25 L24,20.25 Z" id="Shape" fill="#27AE60"></path>
                        </g>
                    </g>
                </g>
            </g>
        </g>
    </g>
</svg>