<?xml version="1.0" encoding="UTF-8"?>
<svg width="24px" height="24px" viewBox="0 0 24 24" version="1.1" xmlns="http://www.w3.org/2000/svg" xmlns:xlink="http://www.w3.org/1999/xlink">
    <!-- Generator: Sketch 49.3 (51167) - http://www.bohemiancoding.com/sketch -->
    <title>ic_active borrowers</title>
    <desc>Created with Sketch.</desc>
    <defs></defs>
    <g id="Page-1" stroke="none" stroke-width="1" fill="none" fill-rule="evenodd">
        <g id="02_Dashboard" transform="translate(-816.000000, -270.000000)">
            <g id="wiedget" transform="translate(22.000000, 181.000000)">
                <g id="Group" transform="translate(780.000000, 0.000000)">
                    <g id="ic_active-borrowers" transform="translate(11.000000, 86.000000)">
                        <g id="Icon-24px">
                            <polygon id="Shape" points="0 0 30 0 30 30 0 30"></polygon>
                            <path d="M3.75,6.25 L3.75,23.75 C3.75,25.125 4.8625,26.25 6.25,26.25 L23.75,26.25 C25.125,26.25 26.25,25.125 26.25,23.75 L26.25,6.25 C26.25,4.875 25.125,3.75 23.75,3.75 L6.25,3.75 C4.8625,3.75 3.75,4.875 3.75,6.25 L3.75,6.25 Z M18.75,11.25 C18.75,13.325 17.075,15 15,15 C12.925,15 11.25,13.325 11.25,11.25 C11.25,9.175 12.925,7.5 15,7.5 C17.075,7.5 18.75,9.175 18.75,11.25 L18.75,11.25 Z M7.5,21.25 C7.5,18.75 12.5,17.375 15,17.375 C17.5,17.375 22.5,18.75 22.5,21.25 L22.5,22.5 L7.5,22.5 L7.5,21.25 L7.5,21.25 Z" id="Shape" fill="#E74C3C"></path>
                        </g>
                    </g>
                </g>
            </g>
        </g>
    </g>
</svg>