<?xml version="1.0" encoding="UTF-8"?>
<svg width="40px" height="36px" viewBox="0 0 40 36" version="1.1" xmlns="http://www.w3.org/2000/svg" xmlns:xlink="http://www.w3.org/1999/xlink">
    <!-- Generator: Sketch 49.3 (51167) - http://www.bohemiancoding.com/sketch -->
    <title>ic_print</title>
    <desc>Created with Sketch.</desc>
    <defs></defs>
    <g id="Page-1" stroke="none" stroke-width="1" fill="none" fill-rule="evenodd">
        <g id="06_1_TransactionManagement" transform="translate(-757.000000, -262.000000)">
            <g id="content" transform="translate(147.000000, 183.000000)">
                <g id="options" transform="translate(0.000000, 50.000000)">
                    <g id="ic_print" transform="translate(606.000000, 23.000000)">
                        <g id="Icon-24px">
                            <polygon id="Shape" points="0 0 48 0 48 48 0 48"></polygon>
                            <path d="M38,16 L10,16 C6.68,16 4,18.68 4,22 L4,34 L12,34 L12,42 L36,42 L36,34 L44,34 L44,22 C44,18.68 41.32,16 38,16 L38,16 Z M32,38 L16,38 L16,28 L32,28 L32,38 L32,38 Z M38,24 C36.9,24 36,23.1 36,22 C36,20.9 36.9,20 38,20 C39.1,20 40,20.9 40,22 C40,23.1 39.1,24 38,24 L38,24 Z M36,6 L12,6 L12,14 L36,14 L36,6 L36,6 Z" id="Shape" fill="#3498DB"></path>
                        </g>
                    </g>
                </g>
            </g>
        </g>
    </g>
</svg>