<?xml version="1.0" encoding="UTF-8"?>
<svg width="33px" height="29px" viewBox="0 0 33 29" version="1.1" xmlns="http://www.w3.org/2000/svg" xmlns:xlink="http://www.w3.org/1999/xlink">
    <!-- Generator: Sketch 49.3 (51167) - http://www.bohemiancoding.com/sketch -->
    <title>ic_product</title>
    <desc>Created with Sketch.</desc>
    <defs></defs>
    <g id="Page-1" stroke="none" stroke-width="1" fill="none" fill-rule="evenodd">
        <g id="04_1_ProductManagement" transform="translate(-250.000000, -325.000000)">
            <g id="content" transform="translate(151.000000, 182.000000)">
                <g id="add-product" transform="translate(26.000000, 101.000000)">
                    <g id="Group-6" transform="translate(15.000000, 38.000000)">
                        <g id="ic_product" transform="translate(57.000000, 0.000000)">
                            <g id="Icon-24px">
                                <polygon id="Shape" points="0 0 36 0 36 36 0 36"></polygon>
                                <path d="M3.795,29.475 L5.805,30.315 L5.805,16.77 L2.16,25.56 C1.545,27.09 2.28,28.845 3.795,29.475 L3.795,29.475 Z M33.045,23.925 L25.605,5.97 C25.14,4.845 24.045,4.155 22.89,4.125 C22.5,4.125 22.095,4.185 21.705,4.35 L10.65,8.925 C9.525,9.39 8.835,10.47 8.805,11.625 C8.79,12.03 8.865,12.435 9.03,12.825 L16.47,30.78 C16.935,31.92 18.045,32.61 19.215,32.625 C19.605,32.625 19.995,32.55 20.37,32.4 L31.41,27.825 C32.94,27.195 33.675,25.44 33.045,23.925 L33.045,23.925 Z M11.82,13.125 C10.995,13.125 10.32,12.45 10.32,11.625 C10.32,10.8 10.995,10.125 11.82,10.125 C12.645,10.125 13.32,10.8 13.32,11.625 C13.32,12.45 12.645,13.125 11.82,13.125 L11.82,13.125 Z M8.82,29.625 C8.82,31.275 10.17,32.625 11.82,32.625 L13.995,32.625 L8.82,20.115 L8.82,29.625 L8.82,29.625 Z" id="Shape" fill="#FFFFFF"></path>
                            </g>
                        </g>
                    </g>
                </g>
            </g>
        </g>
    </g>
</svg>