<?xml version="1.0" encoding="UTF-8"?>
<svg width="34px" height="22px" viewBox="0 0 34 22" version="1.1" xmlns="http://www.w3.org/2000/svg" xmlns:xlink="http://www.w3.org/1999/xlink">
    <!-- Generator: Sketch 49.3 (51167) - http://www.bohemiancoding.com/sketch -->
    <title>ic_borrowers</title>
    <desc>Created with Sketch.</desc>
    <defs></defs>
    <g id="Page-1" stroke="none" stroke-width="1" fill="none" fill-rule="evenodd">
        <g id="02_Dashboard" transform="translate(-38.000000, -464.000000)">
            <g id="wiedget" transform="translate(22.000000, 181.000000)">
                <g id="Group" transform="translate(0.000000, 194.000000)">
                    <g id="ic_borrowers" transform="translate(15.000000, 82.000000)">
                        <g id="Icon-24px">
                            <polygon id="Shape" points="0 0 36 0 36 36 0 36"></polygon>
                            <path d="M24,16.5 C26.49,16.5 28.485,14.49 28.485,12 C28.485,9.51 26.49,7.5 24,7.5 C21.51,7.5 19.5,9.51 19.5,12 C19.5,14.49 21.51,16.5 24,16.5 L24,16.5 Z M12,16.5 C14.49,16.5 16.485,14.49 16.485,12 C16.485,9.51 14.49,7.5 12,7.5 C9.51,7.5 7.5,9.51 7.5,12 C7.5,14.49 9.51,16.5 12,16.5 L12,16.5 Z M12,19.5 C8.505,19.5 1.5,21.255 1.5,24.75 L1.5,28.5 L22.5,28.5 L22.5,24.75 C22.5,21.255 15.495,19.5 12,19.5 L12,19.5 Z M24,19.5 C23.565,19.5 23.07,19.53 22.545,19.575 C24.285,20.835 25.5,22.53 25.5,24.75 L25.5,28.5 L34.5,28.5 L34.5,24.75 C34.5,21.255 27.495,19.5 24,19.5 L24,19.5 Z" id="Shape" fill="#000000"></path>
                        </g>
                    </g>
                </g>
            </g>
        </g>
    </g>
</svg>