<?xml version="1.0" encoding="UTF-8"?>
<svg width="14px" height="16px" viewBox="0 0 14 16" version="1.1" xmlns="http://www.w3.org/2000/svg" xmlns:xlink="http://www.w3.org/1999/xlink">
    <!-- Generator: Sketch 49.3 (51167) - http://www.bohemiancoding.com/sketch -->
    <title>ic_user</title>
    <desc>Created with Sketch.</desc>
    <defs>
        <filter x="-0.8%" y="-0.2%" width="101.7%" height="101.0%" filterUnits="objectBoundingBox" id="filter-1">
            <feOffset dx="0" dy="1" in="SourceAlpha" result="shadowOffsetOuter1"></feOffset>
            <feGaussianBlur stdDeviation="0.5" in="shadowOffsetOuter1" result="shadowBlurOuter1"></feGaussianBlur>
            <feColorMatrix values="0 0 0 0 0   0 0 0 0 0   0 0 0 0 0  0 0 0 0.1 0" type="matrix" in="shadowBlurOuter1" result="shadowMatrixOuter1"></feColorMatrix>
            <feMerge>
                <feMergeNode in="shadowMatrixOuter1"></feMergeNode>
                <feMergeNode in="SourceGraphic"></feMergeNode>
            </feMerge>
        </filter>
    </defs>
    <g id="Page-1" stroke="none" stroke-width="1" fill="none" fill-rule="evenodd">
        <g id="01_2_ForgotPassword" transform="translate(-795.000000, -518.000000)">
            <g id="content" filter="url(#filter-1)" transform="translate(567.000000, 215.000000)">
                <g id="form" transform="translate(37.000000, 25.000000)">
                    <g id="btn_login" transform="translate(160.000000, 268.000000)">
                        <g id="user" transform="translate(30.000000, 10.000000)">
                            <g id="ic_user">
                                <g id="Icon-24px">
                                    <polygon id="Shape" points="0 0 16 0 16 16 0 16"></polygon>
                                    <path d="M12.6666667,2 L9.88,2 C9.6,1.22666667 8.86666667,0.666666667 8,0.666666667 C7.13333333,0.666666667 6.4,1.22666667 6.12,2 L3.33333333,2 C2.6,2 2,2.6 2,3.33333333 L2,12.6666667 C2,13.4 2.6,14 3.33333333,14 L12.6666667,14 C13.4,14 14,13.4 14,12.6666667 L14,3.33333333 C14,2.6 13.4,2 12.6666667,2 L12.6666667,2 Z M8,2 C8.36666667,2 8.66666667,2.3 8.66666667,2.66666667 C8.66666667,3.03333333 8.36666667,3.33333333 8,3.33333333 C7.63333333,3.33333333 7.33333333,3.03333333 7.33333333,2.66666667 C7.33333333,2.3 7.63333333,2 8,2 L8,2 Z M8,4.66666667 C9.10666667,4.66666667 10,5.56 10,6.66666667 C10,7.77333333 9.10666667,8.66666667 8,8.66666667 C6.89333333,8.66666667 6,7.77333333 6,6.66666667 C6,5.56 6.89333333,4.66666667 8,4.66666667 L8,4.66666667 Z M12,12.6666667 L4,12.6666667 L4,11.7333333 C4,10.4 6.66666667,9.66666667 8,9.66666667 C9.33333333,9.66666667 12,10.4 12,11.7333333 L12,12.6666667 L12,12.6666667 Z" id="Shape" fill="#FFFFFF"></path>
                                </g>
                            </g>
                        </g>
                    </g>
                </g>
            </g>
        </g>
    </g>
</svg>