<?xml version="1.0" encoding="UTF-8"?>
<svg width="26px" height="26px" viewBox="0 0 26 26" version="1.1" xmlns="http://www.w3.org/2000/svg" xmlns:xlink="http://www.w3.org/1999/xlink">
    <!-- Generator: Sketch 49.3 (51167) - http://www.bohemiancoding.com/sketch -->
    <title>ic_control_point</title>
    <desc>Created with Sketch.</desc>
    <defs></defs>
    <g id="Page-1" stroke="none" stroke-width="1" fill="none" fill-rule="evenodd">
        <g id="03_2_CustomerManagement_Create" transform="translate(-657.000000, -1858.000000)">
            <g id="content" transform="translate(151.000000, 121.000000)">
                <g id="loan" transform="translate(214.000000, 1595.000000)">
                    <g id="ic_control_point" transform="translate(290.000000, 140.000000)">
                        <g id="Icon-24px">
                            <path d="M16.25,8.75 L13.75,8.75 L13.75,13.75 L8.75,13.75 L8.75,16.25 L13.75,16.25 L13.75,21.25 L16.25,21.25 L16.25,16.25 L21.25,16.25 L21.25,13.75 L16.25,13.75 L16.25,8.75 L16.25,8.75 Z M15,2.5 C8.1125,2.5 2.5,8.1125 2.5,15 C2.5,21.8875 8.1125,27.5 15,27.5 C21.8875,27.5 27.5,21.8875 27.5,15 C27.5,8.1125 21.8875,2.5 15,2.5 L15,2.5 Z M15,25 C9.4875,25 5,20.5125 5,15 C5,9.4875 9.4875,5 15,5 C20.5125,5 25,9.4875 25,15 C25,20.5125 20.5125,25 15,25 L15,25 Z" id="Shape" fill="#3498DB"></path>
                            <polygon id="Shape" points="0 0 30 0 30 30 0 30"></polygon>
                        </g>
                    </g>
                </g>
            </g>
        </g>
    </g>
</svg>