<?xml version="1.0" encoding="UTF-8"?>
<svg width="13px" height="16px" viewBox="0 0 13 16" version="1.1" xmlns="http://www.w3.org/2000/svg" xmlns:xlink="http://www.w3.org/1999/xlink">
    <!-- Generator: Sketch 49.3 (51167) - http://www.bohemiancoding.com/sketch -->
    <title>ic_ledge_view</title>
    <desc>Created with Sketch.</desc>
    <defs></defs>
    <g id="Page-1" stroke="none" stroke-width="1" fill="none" fill-rule="evenodd">
        <g id="03_2_CustomerManagement_Create" transform="translate(-381.000000, -2163.000000)">
            <g id="content" transform="translate(151.000000, 121.000000)">
                <g id="ledger" transform="translate(214.000000, 1983.000000)">
                    <g id="button" transform="translate(0.000000, 49.000000)">
                        <g id="user" transform="translate(15.000000, 10.000000)">
                            <g id="ic_ledge_view">
                                <g id="Icon-24px">
                                    <polygon id="Shape" points="0 0 16 0 16 16 0 16"></polygon>
                                    <path d="M10.6666667,0.666666667 L2.66666667,0.666666667 C1.93333333,0.666666667 1.33333333,1.26666667 1.33333333,2 L1.33333333,11.3333333 L2.66666667,11.3333333 L2.66666667,2 L10.6666667,2 L10.6666667,0.666666667 L10.6666667,0.666666667 Z M12.6666667,3.33333333 L5.33333333,3.33333333 C4.6,3.33333333 4,3.93333333 4,4.66666667 L4,14 C4,14.7333333 4.6,15.3333333 5.33333333,15.3333333 L12.6666667,15.3333333 C13.4,15.3333333 14,14.7333333 14,14 L14,4.66666667 C14,3.93333333 13.4,3.33333333 12.6666667,3.33333333 L12.6666667,3.33333333 Z M12.6666667,14 L5.33333333,14 L5.33333333,4.66666667 L12.6666667,4.66666667 L12.6666667,14 L12.6666667,14 Z" id="Shape" fill="#3498DB"></path>
                                </g>
                            </g>
                        </g>
                    </g>
                </g>
            </g>
        </g>
    </g>
</svg>