<?xml version="1.0" encoding="UTF-8"?>
<svg width="24px" height="26px" viewBox="0 0 24 26" version="1.1" xmlns="http://www.w3.org/2000/svg" xmlns:xlink="http://www.w3.org/1999/xlink">
    <!-- Generator: Sketch 49.3 (51167) - http://www.bohemiancoding.com/sketch -->
    <title>ic_openedaccounts</title>
    <desc>Created with Sketch.</desc>
    <defs></defs>
    <g id="Page-1" stroke="none" stroke-width="1" fill="none" fill-rule="evenodd">
        <g id="02_Dashboard" transform="translate(-621.000000, -463.000000)">
            <g id="wiedget" transform="translate(22.000000, 181.000000)">
                <g id="Group" transform="translate(585.000000, 194.000000)">
                    <g id="ic_openedaccounts" transform="translate(11.000000, 87.000000)">
                        <g id="Icon-24px">
                            <polygon id="Shape" points="0 0 30 0 30 30 0 30"></polygon>
                            <path d="M23.75,3.75 L18.525,3.75 C18,2.3 16.625,1.25 15,1.25 C13.375,1.25 12,2.3 11.475,3.75 L6.25,3.75 C4.875,3.75 3.75,4.875 3.75,6.25 L3.75,23.75 C3.75,25.125 4.875,26.25 6.25,26.25 L23.75,26.25 C25.125,26.25 26.25,25.125 26.25,23.75 L26.25,6.25 C26.25,4.875 25.125,3.75 23.75,3.75 L23.75,3.75 Z M15,3.75 C15.6875,3.75 16.25,4.3125 16.25,5 C16.25,5.6875 15.6875,6.25 15,6.25 C14.3125,6.25 13.75,5.6875 13.75,5 C13.75,4.3125 14.3125,3.75 15,3.75 L15,3.75 Z M15,8.75 C17.075,8.75 18.75,10.425 18.75,12.5 C18.75,14.575 17.075,16.25 15,16.25 C12.925,16.25 11.25,14.575 11.25,12.5 C11.25,10.425 12.925,8.75 15,8.75 L15,8.75 Z M22.5,23.75 L7.5,23.75 L7.5,22 C7.5,19.5 12.5,18.125 15,18.125 C17.5,18.125 22.5,19.5 22.5,22 L22.5,23.75 L22.5,23.75 Z" id="Shape" fill="#000000"></path>
                        </g>
                    </g>
                </g>
            </g>
        </g>
    </g>
</svg>