<?xml version="1.0" encoding="UTF-8"?>
<svg width="12px" height="12px" viewBox="0 0 12 12" version="1.1" xmlns="http://www.w3.org/2000/svg" xmlns:xlink="http://www.w3.org/1999/xlink">
    <!-- Generator: Sketch 49.3 (51167) - http://www.bohemiancoding.com/sketch -->
    <title>ic_save</title>
    <desc>Created with Sketch.</desc>
    <defs></defs>
    <g id="Page-1" stroke="none" stroke-width="1" fill="none" fill-rule="evenodd">
        <g id="05_2_ProductManagement_Create" transform="translate(-842.000000, -171.000000)">
            <g id="content" transform="translate(151.000000, 121.000000)">
                <g id="title" transform="translate(214.000000, 37.000000)">
                    <g id="button" transform="translate(455.000000, 1.000000)">
                        <g id="user" transform="translate(20.000000, 10.000000)">
                            <g id="ic_save">
                                <g id="Icon-24px">
                                    <polygon id="Shape" points="0 0 16 0 16 16 0 16"></polygon>
                                    <path d="M11.3333333,2 L3.33333333,2 C2.59333333,2 2,2.6 2,3.33333333 L2,12.6666667 C2,13.4 2.59333333,14 3.33333333,14 L12.6666667,14 C13.4,14 14,13.4 14,12.6666667 L14,4.66666667 L11.3333333,2 L11.3333333,2 Z M8,12.6666667 C6.89333333,12.6666667 6,11.7733333 6,10.6666667 C6,9.56 6.89333333,8.66666667 8,8.66666667 C9.10666667,8.66666667 10,9.56 10,10.6666667 C10,11.7733333 9.10666667,12.6666667 8,12.6666667 L8,12.6666667 Z M10,6 L3.33333333,6 L3.33333333,3.33333333 L10,3.33333333 L10,6 L10,6 Z" id="Shape" fill="#FFFFFF"></path>
                                </g>
                            </g>
                        </g>
                    </g>
                </g>
            </g>
        </g>
    </g>
</svg>